<svg xmlns="http://www.w3.org/2000/svg" viewBox="0 0 64 64" fill="none">
  <ellipse cx="32" cy="58" rx="20" ry="3.1" fill="rgba(0,0,0,0.25)"/>
  <path d="M13 50h38L43 26a7 7 0 00-7-7H28a7 7 0 00-7 7l-8 24z" fill="#ef8d3d" stroke="#ad5a1e" stroke-width="1.8"/>
  <rect x="15" y="24" width="34" height="11" rx="5.5" fill="#f6a657"/>
  <rect x="18" y="16" width="28" height="10" rx="5" fill="#f9b96c"/>
  <ellipse cx="31.5" cy="15.5" rx="12" ry="7" fill="#a9632c"/>
  <circle cx="27" cy="16" r="3" fill="#ffeec5"/>
  <circle cx="36" cy="16" r="3" fill="#ffeec5"/>
  <circle cx="27.3" cy="16" r="1.2" fill="#241711"/>
  <circle cx="36.3" cy="16" r="1.2" fill="#241711"/>
  <path d="M28.5 18.6h6.8" stroke="#2a190f" stroke-width="1.6" stroke-linecap="round"/>
  <path d="M30.4 20.9l3.3 4.1" stroke="#1a0d05" stroke-width="1.4"/>
  <ellipse cx="38" cy="33" rx="2.6" ry="2" fill="#6c2f0c"/>
  <ellipse cx="26" cy="33" rx="2.6" ry="2" fill="#6c2f0c"/>
  <path d="M23 46c2.6 4.2 9.4 4.2 11.8 0" stroke="#d67b2a" stroke-width="2.2" fill="none" stroke-linecap="round"/>
  <path d="M39 46c-2.6 4.2-9.4 4.2-11.8 0" stroke="#d67b2a" stroke-width="2.2" fill="none" stroke-linecap="round"/>
  <path d="M20 36h24" stroke="#ba5c18" stroke-width="1.4"/>
  <path d="M14 36c1 4 4 8 8 11" stroke="#bf601e" stroke-width="1.6" fill="none" stroke-linecap="round"/>
  <path d="M50 36c-1 4-4 8-8 11" stroke="#bf601e" stroke-width="1.6" fill="none" stroke-linecap="round"/>
  <path d="M29 52h6" stroke="#7b380c" stroke-width="2" stroke-linecap="round"/>
</svg>
