<svg xmlns="http://www.w3.org/2000/svg" viewBox="0 0 128 128" fill="none">
  <rect width="128" height="128" fill="none"/>
  <ellipse cx="64" cy="114" rx="28" ry="8" fill="rgba(0,0,0,0.32)"/>

  <g fill="none" stroke-linejoin="round" stroke-linecap="round">
    <path d="M14 74.5c7.2 0 14.4.4 21.5 1.2" stroke="#1d2515" stroke-width="7"/>
    <path d="M92.5 74.5c7.2 0 14.4.4 21.5 1.2" stroke="#1d2515" stroke-width="7"/>

    <path d="M14.8 71.4c-9.4 8.1-9.9 22 1.3 30" stroke="#2f3b21" stroke-width="9"/>
    <path d="M112.8 71.4c9.4 8.1 9.9 22-1.3 30" stroke="#2f3b21" stroke-width="9"/>
    <path d="M20.2 84.8L12 112.5" stroke="#14200f" stroke-width="4"/>
    <path d="M108.1 84.8L116.3 112.5" stroke="#14200f" stroke-width="4"/>

    <path d="M20.7 50.8C8.8 43.3 9.3 25.4 24.8 16.8" stroke="#1b2616" stroke-width="8"/>
    <path d="M22.4 51.8C16.6 43.6 15.6 33 22 25.8" stroke="#24331d" stroke-width="5"/>
    <path d="M107.4 50.8c11.8-7.5 11.3-25.4-4.2-34" stroke="#1b2616" stroke-width="8"/>
    <path d="M106 52.1c5.8-8.2 6.8-18.8.4-26" stroke="#24331d" stroke-width="5"/>

    <path d="M39.8 77.4l6.3 9.2" stroke="#15210f" stroke-width="4"/>
    <path d="M51.7 78.1l7.7 10.1" stroke="#15210f" stroke-width="4"/>
    <path d="M63.4 78.6l8.1 10.2" stroke="#15210f" stroke-width="4"/>
    <path d="M76.1 78.1l7.9 9.8" stroke="#15210f" stroke-width="4"/>
    <path d="M88 77.4l6.3 9.4" stroke="#15210f" stroke-width="4"/>
  </g>

  <path d="M30 66.5C20.5 79 20.4 98.2 31.5 112.4" stroke="#c11d19" stroke-width="4" fill="none"/>
  <path d="M98 66.5C107.5 79 107.6 98.2 96.5 112.4" stroke="#c11d19" stroke-width="4" fill="none"/>

  <ellipse cx="64" cy="73.5" rx="33.9" ry="20.2" fill="#5cbf43" stroke="#ff1f1f" stroke-width="3.9"/>
  <ellipse cx="40" cy="74.2" rx="12.8" ry="10.4" fill="#63c94a" stroke="#ff2b2b" stroke-width="3"/>
  <ellipse cx="87.8" cy="74.1" rx="12.8" ry="10.4" fill="#63c94a" stroke="#ff2b2b" stroke-width="3"/>

  <path d="M37.8 67c8.7-12.4 25.5-17.5 40.4-17.4 13.8 0 30.2 4.7 38.8 16.2" fill="none" stroke="#2f6f22" stroke-width="3.5"/>
  <path d="M50.8 72.7c9.6-7.9 24.9-11.2 38.7-10.9" fill="none" stroke="#7ee35a" stroke-width="2.2"/>
  <ellipse cx="64" cy="78" rx="26" ry="9.5" fill="#79d455" stroke="#2f6f22" stroke-width="2.5"/>
  <ellipse cx="64" cy="81" rx="19.3" ry="5.8" fill="#88dc60" stroke="#4f8f39" stroke-width="2"/>

  <path d="M56.8 55c-8.4 1.4-14.7 7-16.6 14.6-1.8 7.2 1.6 14.6 9.5 18.4 2.5.5 5.3.6 7.9-.6 4.6-2.2 9.8-3.2 15.4-2.8 5 .4 9.8 1.9 14.2 4.2 1.7.9 3.8.6 5.3-.4 6.1-4.1 8.6-10.2 6.8-16.7-1.7-6.2-7.8-11.4-16-12.5-2.4-.3-4.9-.2-7.4.2h-.2c-1.3.2-2.4-1-2.3-2.3 0-1.5-.2-3.2-1.3-4.9" fill="#59b845" stroke="#173612" stroke-width="4.2"/>
  <path d="M80.3 57.4c-5.2 0-9.7 2.5-12.4 6.4" fill="none" stroke="#1e2a18" stroke-width="3.3"/>
  <ellipse cx="86.7" cy="55.8" rx="16.9" ry="12.4" fill="#4b9d3a" stroke="#ff2b2b" stroke-width="3"/>

  <path d="M88.6 58.4l7.9-9.4M89.4 57.8l10.9-5.4M90.1 61.5l12-2.4M75.4 50.1l7.3-5.5M77.4 53.1l7.7-4.4" fill="none" stroke="#0f1a0d" stroke-width="3.2"/>
  <path d="M76.2 46.4l-8.6-15.6M81 44.5l-4.6-15.5M86 46.3l2.9-15.4" fill="none" stroke="#0f1a0d" stroke-width="3.2"/>

  <path d="M88.2 46.3l-3.3 3.8-6.8-.2-1.9 6.7-5.4 2.4" fill="#3c7f2d" stroke="#173612" stroke-width="1.5"/>
  <path d="M68.4 40.5l2.2 4.4-2.6 4.5 4.4 2.4-.9 5.3 4.9 1.6" fill="#3c7f2d" stroke="#173612" stroke-width="1.4"/>

  <ellipse cx="89.6" cy="55" rx="2.3" ry="1.8" fill="#142a12"/>
  <ellipse cx="96.1" cy="55.1" rx="2.3" ry="1.8" fill="#142a12"/>
  <circle cx="88.7" cy="54.8" r="0.8" fill="#e7ffdc"/>
  <circle cx="95.2" cy="54.8" r="0.8" fill="#e7ffdc"/>

  <ellipse cx="77.6" cy="56.4" rx="7" ry="4.4" fill="#2f7a29" stroke="#ff2b2b" stroke-width="2"/>
  <path d="M74 59.4c2.2 1.8 4.9 2.4 7.4 1.9" fill="none" stroke="#102a10" stroke-width="1.8"/>
  <path d="M100.4 72.3h14M100.4 74.4h14" stroke="#ff3939" stroke-width="1.8" opacity="0.45"/>

  <ellipse cx="85.8" cy="56" rx="1" ry="0.7" fill="#d9f6c5"/>
  <ellipse cx="91.1" cy="56" rx="1" ry="0.7" fill="#d9f6c5"/>

  <path d="M73 61.3c-.6 1.5-.2 3.2 1.1 4.4" fill="none" stroke="#ffd2c1" stroke-width="2.1"/>

  <path d="M96.2 82.5c1.8 1.7 4.1 2.7 6.8 2.8" fill="none" stroke="#ff3b3b" stroke-width="2.8"/>
  <path d="M91.9 82.5c1.2 2 3 3.2 5 3.7" fill="none" stroke="#ff3b3b" stroke-width="2.8"/>
  <path d="M102 82.5c-1.4 2.2-4 3.7-7 3.7" fill="none" stroke="#ff3b3b" stroke-width="2.8"/>

  <path d="M61.5 66c-4.8 2-8.4 5.1-10 8.6" fill="none" stroke="#ff3030" stroke-width="2.4"/>
  <path d="M66.5 66.2c4.4 1.8 7.7 5 9.1 8.4" fill="none" stroke="#ff3030" stroke-width="2.4"/>

  <path d="M98.7 83.1c-2.1-1.9-6.2-2.6-8.6-2.3-9.4 1.3-8.7 10.8-.7 10.2 2-.2 4.3-1.3 5.8-2.7" fill="none" stroke="#2a6b24" stroke-width="2.2"/>
  <ellipse cx="64" cy="55.1" rx="2.2" ry="1.4" fill="#113f12"/>

  <path d="M96.3 89.4c8.3 1.2 14.8 3.8 20.1 7.1" stroke="#3f4f33" stroke-width="3.4" fill="none"/>
  <path d="M98.7 94.6c3.5 1.5 6.8 3.4 9.7 5.7" stroke="#516547" stroke-width="2.5" fill="none"/>

  <path d="M26.9 72.5c3.2-7.5 11-12.1 20.2-12.5 8.7-.4 18 3 24.1 9.2" fill="none" stroke="#ff1e1e" stroke-width="1.4"/>
  <path d="M77.8 73c3.4-7.9 11.9-12.3 21.6-12.3 4.8 0 9.8.9 14.2 2.4" fill="none" stroke="#ff1e1e" stroke-width="1.4"/>

  <path d="M54 95.6c-6.2 4.4-12.7 7.2-19.2 8.2" fill="none" stroke="#ff1d1d" stroke-width="1.6"/>
  <path d="M74.5 95.6c6.2 4.4 12.7 7.2 19.2 8.2" fill="none" stroke="#ff1d1d" stroke-width="1.6"/>

  <g stroke="#ff2626" stroke-linecap="round" stroke-width="2.2">
    <path d="M32.9 56c2.7-1.1 5.6-.6 7.7 1.3"/>
    <path d="M34.7 53.5c4-.7 7.6 1.3 8.9 4.7"/>
    <path d="M36.5 52.1c5-.3 8.8 2.9 9.4 7"/>
  </g>

  <path d="M50.2 60.1h27.8" stroke="#ff5f5f" stroke-width="2.2" opacity="0.78"/>
  <path d="M48.3 85.9c-7.4 6.4-14.4 8.1-20.4 6" stroke="#5f8f45" stroke-width="1.9"/>
  <path d="M74.8 85.9c7.4 6.4 14.4 8.1 20.4 6" stroke="#5f8f45" stroke-width="1.9"/>

  <path d="M68 98.8h10.2" stroke="#2f6f22" stroke-width="2"/>
</svg>
