<svg xmlns="http://www.w3.org/2000/svg" viewBox="0 0 64 64" role="img" aria-label="red capped plumber hero">
  <defs>
    <linearGradient id="skin" x1="24" x2="42" y1="18" y2="39" gradientUnits="userSpaceOnUse">
      <stop offset="0" stop-color="#f7c28c"/>
      <stop offset=".5" stop-color="#d88a55"/>
      <stop offset="1" stop-color="#7b3e28"/>
    </linearGradient>
    <linearGradient id="red" x1="16" x2="49" y1="5" y2="25" gradientUnits="userSpaceOnUse">
      <stop offset="0" stop-color="#62d96a"/>
      <stop offset=".5" stop-color="#1f9d3a"/>
      <stop offset="1" stop-color="#0d4f23"/>
    </linearGradient>
    <linearGradient id="denim" x1="19" x2="47" y1="33" y2="61" gradientUnits="userSpaceOnUse">
      <stop offset="0" stop-color="#2d9bff"/>
      <stop offset=".55" stop-color="#1550a8"/>
      <stop offset="1" stop-color="#08285d"/>
    </linearGradient>
    <radialGradient id="shine" cx="34%" cy="18%" r="65%">
      <stop offset="0" stop-color="#fff2d4" stop-opacity=".55"/>
      <stop offset=".5" stop-color="#fff2d4" stop-opacity=".08"/>
      <stop offset="1" stop-color="#fff2d4" stop-opacity="0"/>
    </radialGradient>
  </defs>
  <ellipse cx="32" cy="59" rx="20" ry="4" fill="#050505" opacity=".45"/>
  <path fill="#17100d" d="M20 56c-4 0-7-2-7-5 0-2 2-4 6-4h9v9h-8Zm24 0h-8v-9h9c4 0 6 2 6 4 0 3-3 5-7 5Z"/>
  <path fill="#9b1d23" d="M18 29h28c5 5 7 14 5 23H13c-2-9 0-18 5-23Z"/>
  <path fill="url(#denim)" stroke="#061d46" stroke-width="1.8" d="M22 33h20c4 5 6 13 5 23H17c-1-10 1-18 5-23Z"/>
  <path fill="#c8262e" d="M17 29c2 5 8 8 15 8s13-3 15-8c-3-5-9-8-15-8s-12 3-15 8Z"/>
  <path fill="url(#skin)" stroke="#4c2418" stroke-width="1.8" d="M19 22c0-9 6-15 14-15 9 0 15 6 15 15 0 12-7 19-15 19s-14-7-14-19Z"/>
  <path fill="#4a2418" d="M17 22c1-8 6-14 15-14 8 0 13 4 15 11-4-3-9-4-15-4-7 0-12 2-15 7Z"/>
  <path fill="url(#red)" stroke="#3d090d" stroke-width="1.8" d="M13 18C15 8 23 3 34 4c10 1 16 6 17 15-8 3-28 3-38-1Z"/>
  <path fill="#187b2d" stroke="#35070b" stroke-width="1.5" d="M20 17c4-5 20-6 28 1 3 3 1 7-3 7H19c-4 0-5-4 1-8Z"/>
  <circle cx="34" cy="16" r="5.5" fill="#f8e9c9" stroke="#1e6f2f" stroke-width="1.4"/>
  <path fill="#1f9d3a" d="M31 19v-6h2l1.4 2 1.4-2h2v6h-2v-3l-1.4 2-1.4-2v3h-2Z"/>
  <path fill="#2b1710" d="M34 27c3 0 8 1 10 4-2 5-6 7-11 7s-9-2-11-7c2-3 7-4 12-4Z"/>
  <path fill="#2b1710" d="M25 24c0 1.5-1 2.7-2.2 2.7S20.6 25.5 20.6 24s1-2.7 2.2-2.7S25 22.5 25 24Zm19 0c0 1.5-1 2.7-2.2 2.7s-2.2-1.2-2.2-2.7 1-2.7 2.2-2.7S44 22.5 44 24Z"/>
  <path fill="#f4c18a" d="M29 25c2 1 5 1 7 0-.2 2.2-1.4 3.8-3.5 3.8S29.2 27.2 29 25Z"/>
  <path fill="#ffdf8b" d="M25 40h4v4h-4v-4Zm12 0h4v4h-4v-4Z"/>
  <path fill="#2fb84a" d="M14 32c-5 2-7 7-5 11 1 2 4 3 7 1l5-4-7-8Zm36 0c5 2 7 7 5 11-1 2-4 3-7 1l-5-4 7-8Z"/>
  <path fill="#f2b47c" d="M8 42c1 4 7 5 10 1-1-3-6-5-10-1Zm38 1c3 4 9 3 10-1-4-4-9-2-10 1Z"/>
  <path fill="url(#shine)" d="M14 18C17 8 25 3 35 5c-6 1-10 5-12 12-3 1-6 1-9 1Z"/>
</svg>
