<svg xmlns="http://www.w3.org/2000/svg" viewBox="0 0 64 64" role="img" aria-label="glowing mushroom">
  <defs>
    <linearGradient id="cap" x1="8" x2="56" y1="12" y2="38" gradientUnits="userSpaceOnUse">
      <stop offset="0" stop-color="#ff6f62"/>
      <stop offset="0.45" stop-color="#d72e29"/>
      <stop offset="1" stop-color="#7b1116"/>
    </linearGradient>
    <linearGradient id="stem" x1="24" x2="42" y1="31" y2="56" gradientUnits="userSpaceOnUse">
      <stop offset="0" stop-color="#fff2c4"/>
      <stop offset="0.55" stop-color="#e1b87a"/>
      <stop offset="1" stop-color="#8a5a38"/>
    </linearGradient>
    <radialGradient id="glow" cx="50%" cy="48%" r="54%">
      <stop offset="0" stop-color="#ffeeb0" stop-opacity=".9"/>
      <stop offset=".48" stop-color="#ff715f" stop-opacity=".22"/>
      <stop offset="1" stop-color="#ff715f" stop-opacity="0"/>
    </radialGradient>
  </defs>
  <circle cx="32" cy="33" r="28" fill="url(#glow)"/>
  <path fill="#2c130e" opacity=".45" d="M11 35c3 9 13 16 21 16s18-7 21-16c-8 3-34 3-42 0Z"/>
  <path fill="url(#stem)" stroke="#3c2014" stroke-width="2.2" d="M23 31h18c4 3 6 8 6 14 0 8-6 13-15 13s-15-5-15-13c0-6 2-11 6-14Z"/>
  <path fill="url(#cap)" stroke="#3b1014" stroke-width="2.4" d="M7 34C8 17 20 6 32 6s24 11 25 28c-6 5-15 7-25 7S13 39 7 34Z"/>
  <ellipse cx="21" cy="21" rx="6.8" ry="8" fill="#fff5d4"/>
  <ellipse cx="38" cy="16" rx="7.4" ry="6.3" fill="#fff8dc"/>
  <ellipse cx="47" cy="30" rx="4.4" ry="5.6" fill="#ffe8bd"/>
  <path fill="#fbdca7" opacity=".72" d="M22 38c4 2 16 2 20 0-1 4-4 7-10 7s-9-3-10-7Z"/>
  <path fill="#3b2116" d="M26 47c0 1.8-1 3.2-2.2 3.2S21.6 48.8 21.6 47s1-3.2 2.2-3.2S26 45.2 26 47Zm16 0c0 1.8-1 3.2-2.2 3.2s-2.2-1.4-2.2-3.2 1-3.2 2.2-3.2S42 45.2 42 47Z"/>
  <path fill="#fff7d6" opacity=".42" d="M13 31C15 18 24 10 35 9c-6 3-10 9-12 18-3 4-7 5-10 4Z"/>
</svg>
