<svg xmlns="http://www.w3.org/2000/svg" viewBox="0 0 64 64" fill="none">
  <ellipse cx="32" cy="57.8" rx="18.2" ry="3.5" fill="rgba(0,0,0,0.24)"/>
  <path d="M18.2 51.4h27.6c2.8 0 5 2.1 5 4.8V59c0 .6-.4 1-1 1H14.2c-.6 0-1-.4-1-1v-2.8c0-2.7 2.2-4.8 5-4.8z" fill="#2f5b3d"/>
  <rect x="21" y="22.2" width="22" height="22.6" rx="4.8" fill="#4e8f62" stroke="#2b4f36" stroke-width="1.4"/>
  <path d="M22.2 24.4h19.6l-1.4 14.2H23.6z" fill="#5ba671"/>
  <rect x="23.5" y="25.2" width="17" height="11.7" rx="3" fill="#6fb57d"/>
  <path d="M31.5 48.2V39.8M32 48.2V39.8" stroke="#274a30" stroke-width="2.2" stroke-linecap="round"/>
  <circle cx="27" cy="16.8" r="8" fill="#efcfab" stroke="#d1ad8e" stroke-width="1.2"/>
  <ellipse cx="27" cy="28.5" rx="5.5" ry="1.8" fill="#f7d8ba"/>
  <circle cx="28.3" cy="16.2" r="1.1" fill="#1a2520"/>
  <circle cx="34" cy="16.2" r="1.1" fill="#1a2520"/>
  <circle cx="28.9" cy="16.1" r="0.32" fill="#f4f0e9"/>
  <circle cx="34.7" cy="16.1" r="0.32" fill="#f4f0e9"/>
  <path d="M29.4 17.9h8.4" stroke="#2b1910" stroke-width="1.2" stroke-linecap="round"/>
  <ellipse cx="31.4" cy="18.8" rx="3.9" ry="2.1" fill="#a45d48"/>
  <line x1="32.6" y1="16.5" x2="30.5" y2="12.7" stroke="#4b2b20" stroke-width="1.6" stroke-linecap="round"/>
  <line x1="35.2" y1="16.7" x2="36.8" y2="13" stroke="#4b2b20" stroke-width="1.6" stroke-linecap="round"/>
  <path d="M23.6 32.3l-6.2 6.2M40.5 32.3l6.2 6.2" stroke="#2f5b3d" stroke-width="3.3" stroke-linecap="round"/>
  <path d="M23.6 50.9l-3.8 6M40.5 50.9l3.8 6" stroke="#304b34" stroke-width="2.9" stroke-linecap="round"/>
  <path d="M24.8 44.5l-2.3 4.8M39.4 44.5l2.2 4.8" stroke="#213a28" stroke-width="2.2" stroke-linecap="round"/>
  <ellipse cx="24.7" cy="52.5" rx="2.8" ry="1.3" fill="#1f3729"/>
  <ellipse cx="39.1" cy="52.5" rx="2.8" ry="1.3" fill="#1f3729"/>
</svg>
