<svg xmlns="http://www.w3.org/2000/svg" viewBox="0 0 64 64" fill="none">
  <ellipse cx="32" cy="57.2" rx="18" ry="3.4" fill="rgba(0,0,0,0.28)" />
  <ellipse cx="33" cy="40.2" rx="14.8" ry="10.2" fill="#4a4a4d" />
  <ellipse cx="25" cy="40" rx="6.2" ry="4.9" fill="#64646a" />
  <ellipse cx="41" cy="40" rx="6.2" ry="4.9" fill="#64646a" />
  <ellipse cx="19" cy="40.6" rx="4.2" ry="4.2" fill="#2f2f33" />
  <ellipse cx="47" cy="40.6" rx="4.2" ry="4.2" fill="#2f2f33" />
  <ellipse cx="22.2" cy="35" rx="1.7" ry="1.2" fill="#16161a" />
  <ellipse cx="26.2" cy="35" rx="1.7" ry="1.2" fill="#16161a" />
  <ellipse cx="37.8" cy="35" rx="1.7" ry="1.2" fill="#16161a" />
  <ellipse cx="41.8" cy="35" rx="1.7" ry="1.2" fill="#16161a" />
  <circle cx="22.2" cy="35.2" r="0.4" fill="#f9efe2" />
  <circle cx="26" cy="35.2" r="0.4" fill="#f9efe2" />
  <circle cx="37.8" cy="35.2" r="0.4" fill="#f9efe2" />
  <circle cx="41.6" cy="35.2" r="0.4" fill="#f9efe2" />
  <ellipse cx="33" cy="31.4" rx="9" ry="4.4" fill="#d5d5d7" />
  <rect x="29" y="14" width="8" height="15" rx="3" fill="#f6f6f6" />
  <ellipse cx="33" cy="19.8" rx="4.8" ry="2.5" fill="#5f6166" />
  <rect x="27" y="24" width="12" height="3.4" rx="1.5" fill="#f5a33f" />
  <rect x="31" y="30.5" width="3.8" height="7" rx="1.5" fill="#2a2b2f" />
  <path d="M21 48.4c0.2-1.3 2.5-3.2 5.2-2.7" stroke="#18181c" stroke-width="1.5" stroke-linecap="round" fill="none" />
  <path d="M38 48.4c1.3-0.9 2.5-1.8 4.8-1.3" stroke="#18181c" stroke-width="1.5" stroke-linecap="round" fill="none" />
  <circle cx="33" cy="44.2" r="1.9" fill="#ffcc66" fill-opacity="0.95" />
  <path d="M33 44.2V50" stroke="#ffcc66" stroke-width="2.4" stroke-linecap="round" />
  <path d="M30.6 48L33 50l2.5-2" stroke="#ffcc66" stroke-width="2.4" stroke-linecap="round" fill="none" />
</svg>
