<svg xmlns="http://www.w3.org/2000/svg" viewBox="0 0 64 64" fill="none">
  <ellipse cx="32" cy="57.3" rx="17.5" ry="3.4" fill="rgba(0,0,0,0.28)"/>
  <ellipse cx="32" cy="40" rx="14.8" ry="10.2" fill="#3a3a3c"/>
  <ellipse cx="24" cy="39" rx="6" ry="4.9" fill="#525255"/>
  <ellipse cx="40" cy="39" rx="6" ry="4.9" fill="#525255"/>
  <ellipse cx="18" cy="40" rx="4" ry="4.3" fill="#2d2d2f"/>
  <ellipse cx="46" cy="40" rx="4" ry="4.3" fill="#2d2d2f"/>
  <ellipse cx="20" cy="35" rx="1.8" ry="1.2" fill="#19191b"/>
  <ellipse cx="24" cy="35" rx="1.8" ry="1.2" fill="#19191b"/>
  <ellipse cx="44" cy="35" rx="1.8" ry="1.2" fill="#19191b"/>
  <ellipse cx="40" cy="35" rx="1.8" ry="1.2" fill="#19191b"/>
  <circle cx="20" cy="35.2" r="0.45" fill="#fef3de"/>
  <circle cx="24.1" cy="35.2" r="0.45" fill="#fef3de"/>
  <circle cx="40.1" cy="35.2" r="0.45" fill="#fef3de"/>
  <circle cx="43.9" cy="35.2" r="0.45" fill="#fef3de"/>

  <ellipse cx="32" cy="30.4" rx="9.6" ry="4.7" fill="#f5f5f5"/>
  <rect x="27.5" y="14.5" width="9" height="16" rx="3.5" fill="#2f2f33"/>
  <ellipse cx="32" cy="20" rx="5.2" ry="2.7" fill="#3f3f42"/>
  <ellipse cx="28.2" cy="22.6" rx="1.8" ry="1.1" fill="#202023"/>
  <ellipse cx="35.8" cy="22.6" rx="1.8" ry="1.1" fill="#202023"/>
  <rect x="25" y="24" width="14" height="3.6" rx="1.6" fill="#1f2f4a" opacity="0.94"/>
  <rect x="29" y="24.5" width="6" height="9" rx="2" fill="#ffbd4f"/>
  <rect x="30" y="33" width="4" height="5" rx="1.5" fill="#ff8248"/>
  <path d="M19.2 44.4c3.3 1.3 8.5 3 13 1.3" stroke="#1f1f21" stroke-width="1.5" stroke-linecap="round" fill="none"/>
  <path d="M31.7 44.4c4.5 1.7 9.7 0 13-1.3" stroke="#1f1f21" stroke-width="1.5" stroke-linecap="round" fill="none"/>
  <path d="M24 48.5c4.1-1.8 8-1.7 12 0" stroke="#151517" stroke-width="1.4" stroke-linecap="round"/>
  <path d="M23.6 50.5c2.3 2.6 7.8 2.8 16.6-.2" stroke="#151517" stroke-width="1.3" stroke-linecap="round"/>
  <rect x="14.5" y="40.5" width="35" height="2.6" rx="1.2" fill="#f6d48e" opacity="0.45"/>
</svg>
