<svg xmlns="http://www.w3.org/2000/svg" viewBox="0 0 64 64" fill="none">
  <ellipse cx="32" cy="57.5" rx="18" ry="3.5" fill="rgba(0,0,0,0.22)"/>
  <ellipse cx="39.5" cy="40" rx="15.4" ry="10" fill="#b0f08a"/>
  <ellipse cx="22.5" cy="40" rx="8.7" ry="7.5" fill="#9bd16a"/>
  <ellipse cx="16" cy="40.5" rx="4.5" ry="4.7" fill="#7ba64f"/>
  <ellipse cx="38.8" cy="32.5" rx="7" ry="2.3" fill="#7fbf6b"/>
  <ellipse cx="39.2" cy="48.6" rx="2.2" ry="1.4" fill="#5d8f47"/>
  <ellipse cx="31.5" cy="48.6" rx="2.1" ry="1.4" fill="#5d8f47"/>
  <ellipse cx="45.8" cy="48.6" rx="2" ry="1.4" fill="#5d8f47"/>
  <ellipse cx="20.3" cy="33.2" rx="1.6" ry="1.2" fill="#2f4925"/>
  <circle cx="21.2" cy="36.2" r="1.2" fill="#2f4925"/>
  <circle cx="24.6" cy="36.2" r="1.2" fill="#2f4925"/>
  <circle cx="20.9" cy="35.5" r="0.45" fill="#f1fff0"/>
  <circle cx="24.2" cy="35.5" r="0.45" fill="#f1fff0"/>
  <circle cx="14.6" cy="40" r="1.8" fill="#4f7533"/>
  <line x1="16.7" y1="41.6" x2="8.8" y2="38.4" stroke="#4f7533" stroke-width="1" stroke-linecap="round"/>
  <line x1="17" y1="40.6" x2="8.7" y2="40.6" stroke="#4f7533" stroke-width="1" stroke-linecap="round"/>
  <line x1="16.7" y1="39.5" x2="8.8" y2="42.7" stroke="#4f7533" stroke-width="1" stroke-linecap="round"/>
  <path d="M22.3 37.8c0 .9 0.4 1.5 1.4 2" stroke="#84c35c" stroke-width="1.1" fill="none" stroke-linecap="round"/>
  <path d="M14.6 42.2s0.5 2 2.8 2.8" stroke="#84c35c" stroke-width="0.9" fill="none" stroke-linecap="round"/>
  <path d="M19.4 30.1c1.4 2.6 4 4.2 7 4.2" stroke="#6ba54a" stroke-width="1.2" fill="none" stroke-linecap="round"/>
  <path d="M18.4 30.1c-2 1.9-2.6 3.8-1.5 5.5" stroke="#6ba54a" stroke-width="1.2" fill="none" stroke-linecap="round"/>
  <ellipse cx="52.3" cy="41.1" rx="4" ry="2.8" fill="#e8ffe0"/>
  <ellipse cx="47.4" cy="41.1" rx="4" ry="2.8" fill="#e8ffe0"/>
  <path d="M47.5 44c9.3 3.2 11.8 9.2 11.5 14.2" stroke="#95d06d" stroke-width="2.2" fill="none" stroke-linecap="round"/>
  <path d="M37.4 45c-1.9 3.6-4.8 5.9-8 6.8" stroke="#95d06d" stroke-width="1.9" fill="none" stroke-linecap="round"/>
  <path d="M47 28l5 0l-3 5" stroke="#d2ffe2" stroke-width="1.4" fill="none" stroke-linecap="round"/>
  <path d="M44 34l5 0l-3 5" stroke="#d2ffe2" stroke-width="1.4" fill="none" stroke-linecap="round"/>
  <circle cx="42" cy="44" r="1.8" fill="#d0ffea"/>
</svg>
