<svg xmlns="http://www.w3.org/2000/svg" viewBox="0 0 64 64" fill="none">
  <ellipse cx="32" cy="57.5" rx="18" ry="3.5" fill="rgba(0,0,0,0.22)"/>
  <ellipse cx="39.5" cy="40" rx="15.4" ry="10" fill="#9a7156"/>
  <ellipse cx="22.5" cy="40" rx="8.7" ry="7.5" fill="#af8d73"/>
  <ellipse cx="16" cy="40.5" rx="4.5" ry="4.7" fill="#c2a283"/>
  <ellipse cx="38.8" cy="32.5" rx="7" ry="2.3" fill="#8a6b4f"/>
  <ellipse cx="39.2" cy="48.6" rx="2.2" ry="1.4" fill="#87634b"/>
  <ellipse cx="31.5" cy="48.6" rx="2.1" ry="1.4" fill="#87634b"/>
  <ellipse cx="45.8" cy="48.6" rx="2" ry="1.4" fill="#87634b"/>
  <ellipse cx="20.3" cy="33.2" rx="1.6" ry="1.2" fill="#2e2016"/>
  <circle cx="21.2" cy="36.2" r="1.2" fill="#2e2016"/>
  <circle cx="24.6" cy="36.2" r="1.2" fill="#2e2016"/>
  <circle cx="20.9" cy="35.5" r="0.45" fill="#f7efe2"/>
  <circle cx="24.2" cy="35.5" r="0.45" fill="#f7efe2"/>
  <circle cx="14.6" cy="40" r="1.8" fill="#3e2e22"/>
  <line x1="16.7" y1="41.6" x2="8.8" y2="38.4" stroke="#3e2e22" stroke-width="1" stroke-linecap="round"/>
  <line x1="17" y1="40.6" x2="8.7" y2="40.6" stroke="#3e2e22" stroke-width="1" stroke-linecap="round"/>
  <line x1="16.7" y1="39.5" x2="8.8" y2="42.7" stroke="#3e2e22" stroke-width="1" stroke-linecap="round"/>
  <path d="M22.3 37.8c0 .9 0.4 1.5 1.4 2" stroke="#7c5c47" stroke-width="1.1" fill="none" stroke-linecap="round"/>
  <path d="M14.6 42.2s0.5 2 2.8 2.8" stroke="#7c5c47" stroke-width="0.9" fill="none" stroke-linecap="round"/>
  <path d="M19.4 30.1c1.4 2.6 4 4.2 7 4.2" stroke="#8c694f" stroke-width="1.2" fill="none" stroke-linecap="round"/>
  <path d="M18.4 30.1c-2 1.9-2.6 3.8-1.5 5.5" stroke="#8c694f" stroke-width="1.2" fill="none" stroke-linecap="round"/>
  <ellipse cx="52.3" cy="41.1" rx="4" ry="2.8" fill="#f4eadf"/>
  <ellipse cx="47.4" cy="41.1" rx="4" ry="2.8" fill="#f4eadf"/>
  <path d="M47.5 44c9.3 3.2 11.8 9.2 11.5 14.2" stroke="#9a7962" stroke-width="2.2" fill="none" stroke-linecap="round"/>
  <path d="M37.4 45c-1.9 3.6-4.8 5.9-8 6.8" stroke="#9a7962" stroke-width="1.9" fill="none" stroke-linecap="round"/>
</svg>
