<svg xmlns="http://www.w3.org/2000/svg" viewBox="0 0 64 64" role="img" aria-label="slime skin">
  <defs>
    <linearGradient id="slime" x1="15" x2="50" y1="14" y2="58" gradientUnits="userSpaceOnUse">
      <stop offset="0" stop-color="#b8ff9a"/>
      <stop offset=".5" stop-color="#45d56b"/>
      <stop offset="1" stop-color="#13733c"/>
    </linearGradient>
  </defs>
  <ellipse cx="32" cy="58" rx="21" ry="5" fill="#031207" opacity=".4"/>
  <path fill="url(#slime)" stroke="#0b4f2e" stroke-width="2" d="M13 50c0-19 8-34 19-34s19 15 19 34c-8 7-30 7-38 0Z"/>
  <path fill="#eaffe5" opacity=".75" d="M23 22c-5 4-8 12-8 21 5-4 9-11 10-20l-2-1Z"/>
  <circle cx="25" cy="39" r="4" fill="#062613"/>
  <circle cx="40" cy="39" r="4" fill="#062613"/>
  <circle cx="23" cy="30" r="4" fill="#dfffd3" opacity=".68"/>
  <circle cx="37" cy="24" r="3" fill="#dfffd3" opacity=".46"/>
  <path fill="#07451f" d="M27 48c3 2 7 2 10 0 .8-.5 1.6.4 1 1.2-1.6 2.4-3.5 3.5-6 3.5s-4.4-1.1-6-3.5c-.6-.8.2-1.7 1-1.2Z"/>
  <path fill="#62e881" opacity=".55" d="M15 51c9 4 25 4 34 0-4 6-29 7-34 0Z"/>
</svg>
