<svg xmlns="http://www.w3.org/2000/svg" viewBox="0 0 64 64" role="img" aria-label="ghost skin">
  <defs>
    <linearGradient id="ghostBody" x1="18" x2="48" y1="8" y2="58" gradientUnits="userSpaceOnUse">
      <stop offset="0" stop-color="#ffffff"/>
      <stop offset=".55" stop-color="#c9fff1"/>
      <stop offset="1" stop-color="#70b8cb"/>
    </linearGradient>
  </defs>
  <ellipse cx="32" cy="58" rx="20" ry="4" fill="#06100b" opacity=".38"/>
  <path fill="url(#ghostBody)" stroke="#477b8a" stroke-width="2.2" d="M15 54V26C15 14 22 7 32 7s17 7 17 19v28l-6-5-5 6-6-6-6 6-5-6-6 5Z"/>
  <path fill="#f6fffb" opacity=".62" d="M20 29c1-10 6-16 15-18-5 5-7 12-7 23 0 8-5 9-8 5V29Z"/>
  <ellipse cx="25" cy="30" rx="4" ry="6" fill="#10221f"/>
  <ellipse cx="39" cy="30" rx="4" ry="6" fill="#10221f"/>
  <path fill="#10221f" d="M28 43c2.8 2.5 5.4 2.5 8 0 .6-.6 1.6 0 1.3.9-1 3.6-3 5.3-5.3 5.3s-4.3-1.7-5.3-5.3c-.3-.9.7-1.5 1.3-.9Z"/>
  <path fill="#ffffff" opacity=".65" d="M22 18c2-4 6-7 10-7-3 3-5 7-6 12-2 2-5 0-4-5Z"/>
</svg>
