<svg xmlns="http://www.w3.org/2000/svg" viewBox="0 0 64 64" role="img" aria-label="lightbulb hero">
  <defs>
    <radialGradient id="halo" cx="32" cy="25" r="26" gradientUnits="userSpaceOnUse">
      <stop offset="0" stop-color="#fff9b0" stop-opacity="0.9"/>
      <stop offset="0.52" stop-color="#ffd85a" stop-opacity="0.35"/>
      <stop offset="1" stop-color="#ffd85a" stop-opacity="0"/>
    </radialGradient>
    <linearGradient id="glass" x1="20" y1="10" x2="44" y2="42" gradientUnits="userSpaceOnUse">
      <stop offset="0" stop-color="#fffbd1"/>
      <stop offset="0.45" stop-color="#ffe36d"/>
      <stop offset="1" stop-color="#f4a62f"/>
    </linearGradient>
    <linearGradient id="base" x1="24" y1="38" x2="40" y2="56" gradientUnits="userSpaceOnUse">
      <stop offset="0" stop-color="#ccd5df"/>
      <stop offset="1" stop-color="#5e7182"/>
    </linearGradient>
  </defs>
  <circle cx="32" cy="26" r="28" fill="url(#halo)"/>
  <path d="M20 24c0-8 5.4-14 12-14s12 6 12 14c0 5.4-2.6 9.2-5.4 12.5-1.8 2.1-2.6 3.5-2.6 5.5h-8c0-2-.8-3.4-2.6-5.5C22.6 33.2 20 29.4 20 24z" fill="url(#glass)" stroke="#5d3b10" stroke-width="2.4" stroke-linejoin="round"/>
  <path d="M25 17c2.4-3.2 7.4-4.5 11.3-2.7" fill="none" stroke="#fffbe0" stroke-width="2.8" stroke-linecap="round" opacity="0.9"/>
  <path d="M28 42h8v4h-8z" fill="url(#base)" stroke="#31404d" stroke-width="2"/>
  <path d="M26 46h12v4H26z" fill="url(#base)" stroke="#31404d" stroke-width="2"/>
  <path d="M28 50h8v4h-8z" fill="#758899" stroke="#31404d" stroke-width="2"/>
  <path d="M27 45h10M27 49h10" stroke="#e9f1f8" stroke-width="1.4" stroke-linecap="round" opacity="0.7"/>
  <circle cx="27" cy="25" r="1.7" fill="#2b210f"/>
  <circle cx="37" cy="25" r="1.7" fill="#2b210f"/>
  <path d="M29 31c1.8 1.4 4.2 1.4 6 0" fill="none" stroke="#2b210f" stroke-width="1.8" stroke-linecap="round"/>
</svg>
