<svg xmlns="http://www.w3.org/2000/svg" viewBox="0 0 64 64" role="img" aria-label="wizard skin">
  <defs>
    <linearGradient id="robe" x1="16" x2="48" y1="24" y2="61" gradientUnits="userSpaceOnUse">
      <stop offset="0" stop-color="#4be07b"/>
      <stop offset=".55" stop-color="#166e55"/>
      <stop offset="1" stop-color="#0b2b54"/>
    </linearGradient>
    <linearGradient id="hat" x1="19" x2="43" y1="2" y2="31" gradientUnits="userSpaceOnUse">
      <stop offset="0" stop-color="#78ff9b"/>
      <stop offset="1" stop-color="#125b7c"/>
    </linearGradient>
  </defs>
  <ellipse cx="32" cy="59" rx="19" ry="4" fill="#040b08" opacity=".45"/>
  <path fill="url(#robe)" stroke="#061f28" stroke-width="2" d="M20 31h24l7 27H13l7-27Z"/>
  <path fill="#f0bd84" stroke="#4b2416" stroke-width="1.6" d="M23 25c0-7 4-11 9-11s9 4 9 11c0 8-4 12-9 12s-9-4-9-12Z"/>
  <path fill="url(#hat)" stroke="#08262e" stroke-width="2" d="M19 25 31 3l13 22H19Z"/>
  <path fill="#0c2530" stroke="#08262e" stroke-width="1.8" d="M16 25h33c2 0 3 3 1 4-7 3-27 3-35 0-2-1-1-4 1-4Z"/>
  <circle cx="34" cy="16" r="3" fill="#f7e36d"/>
  <circle cx="27" cy="25" r="2" fill="#10211b"/>
  <circle cx="37" cy="25" r="2" fill="#10211b"/>
  <path fill="#dfffe8" d="M27 34c4 3 7 3 11 0l-2 10h-7l-2-10Z"/>
  <path stroke="#f7e36d" stroke-width="2" stroke-linecap="round" d="M46 19 56 9"/>
  <circle cx="57" cy="8" r="4" fill="#f7e36d"/>
</svg>
