<svg xmlns="http://www.w3.org/2000/svg" viewBox="0 0 64 64" role="img" aria-label="ninja skin">
  <defs>
    <linearGradient id="blackCloth" x1="18" x2="46" y1="7" y2="59" gradientUnits="userSpaceOnUse">
      <stop offset="0" stop-color="#303a34"/>
      <stop offset=".55" stop-color="#0b0f0d"/>
      <stop offset="1" stop-color="#020302"/>
    </linearGradient>
  </defs>
  <ellipse cx="32" cy="59" rx="18" ry="4" fill="#020302" opacity=".55"/>
  <path fill="url(#blackCloth)" stroke="#020302" stroke-width="2" d="M18 25C18 13 24 7 32 7s14 6 14 18v11H18V25Z"/>
  <path fill="#0a0d0b" stroke="#020302" stroke-width="2" d="M20 35h24l5 22H15l5-22Z"/>
  <path fill="#d2b17b" d="M21 24h22v8H21z"/>
  <circle cx="27" cy="28" r="2.2" fill="#07100b"/>
  <circle cx="37" cy="28" r="2.2" fill="#07100b"/>
  <path fill="#151c18" d="M20 33c8 4 16 4 24 0v5H20v-5Z"/>
  <path fill="#24332c" d="M14 38h8v15h-8c-4-4-4-10 0-15Zm28 0h8c4 5 4 11 0 15h-8V38Z"/>
  <path stroke="#cfd6d2" stroke-width="2.4" stroke-linecap="round" d="M45 18 55 8"/>
  <path stroke="#cfd6d2" stroke-width="2.4" stroke-linecap="round" d="M48 21 58 11"/>
  <path fill="#111" d="M24 47h16v4H24z"/>
</svg>
